<svg width="980" height="360" viewBox="0 0 980 360" fill="none" xmlns="http://www.w3.org/2000/svg">
  <g stroke="#0E325C" stroke-width="11" stroke-linecap="round" stroke-linejoin="round">
    <path d="M340 36C378 6 426 10 462 34L490 57L518 34C554 10 602 6 640 36C673 62 693 96 703 138L710 166"/>
    <path d="M270 167C284 116 306 78 340 36"/>
    <path d="M710 166C720 186 723 206 718 226C710 259 682 283 647 294L560 317L490 268L420 317L333 294C298 283 270 259 262 226C257 206 260 186 270 167"/>
    <path d="M333 294L312 248"/>
    <path d="M647 294L668 248"/>
    <path d="M293 127L345 95L371 145"/>
    <path d="M687 127L635 95L609 145"/>
    <path d="M371 145C393 106 435 83 490 83C545 83 587 106 609 145"/>
    <path d="M371 145C353 162 339 182 332 206"/>
    <path d="M609 145C627 162 641 182 648 206"/>
    <path d="M332 206C345 239 379 262 427 267H553C601 262 635 239 648 206"/>
    <path d="M490 83V116"/>
    <path d="M403 111L419 143L438 110L458 145L477 108L495 145L514 108L533 145L553 110L571 143"/>
    <path d="M354 163L373 198L392 164L411 200L430 166L449 202L468 168L487 204L506 168L525 202L544 166L563 200L582 164L601 198L620 163"/>
    <path d="M378 247L398 215L417 248L437 214L456 248L476 212L495 248L515 212L534 248L554 214L573 248L593 215L612 247"/>
    <path d="M273 175L300 203"/>
    <path d="M707 175L680 203"/>
  </g>
  <g fill="#0E325C">
    <path d="M141.28 297V248.34H156.46V284.28H178.84V297H141.28Z"/>
    <path d="M189.03 297V248.34H204.21V297H189.03Z"/>
    <path d="M216.46 297V248.34H252.72V260.43H231.64V267.07H250.69V278.67H231.64V297H216.46Z"/>
    <path d="M261.29 297V248.34H298.34V260.36H276.47V266.81H296.92V278.2H276.47V284.98H298.62V297H261.29Z"/>
    <path d="M322.81 297V248.34H345.96C353.66 248.34 360.06 249.79 365.16 252.69C370.31 255.54 374.17 259.54 376.76 264.71C379.39 269.83 380.71 275.78 380.71 282.55C380.71 289.32 379.39 295.29 376.76 300.46C374.17 305.58 370.31 309.58 365.16 312.48C360.06 315.33 353.66 316.75 345.96 316.75H322.81V297ZM338 284.28H345.34C349.67 284.28 353.08 283.52 355.58 282C358.12 280.43 359.93 278.32 361.03 275.67C362.13 272.97 362.68 269.93 362.68 266.55C362.68 263.16 362.13 260.15 361.03 257.5C359.93 254.85 358.12 252.78 355.58 251.27C353.08 249.7 349.67 248.92 345.34 248.92H338V284.28Z" transform="translate(0 17) scale(0.86)"/>
    <path d="M403.72 297.97C396.83 297.97 391.11 296.66 386.56 294.03C382.06 291.4 378.7 287.74 376.48 283.04C374.27 278.33 373.16 272.9 373.16 266.74V248.34H388.34V266.32C388.34 269.13 388.74 271.62 389.54 273.8C390.34 275.98 391.63 277.69 393.42 278.95C395.21 280.16 397.64 280.76 400.7 280.76C403.8 280.76 406.23 280.16 407.99 278.95C409.78 277.69 411.05 275.98 411.78 273.8C412.56 271.62 412.95 269.13 412.95 266.32V248.34H428.13V266.74C428.13 272.9 427 278.33 424.74 283.04C422.52 287.74 419.15 291.4 414.63 294.03C410.13 296.66 404.49 297.97 397.7 297.97H403.72Z"/>
    <path d="M438.61 297V248.34H461.76C469.46 248.34 475.86 249.79 480.96 252.69C486.11 255.54 489.97 259.54 492.56 264.71C495.19 269.83 496.51 275.78 496.51 282.55C496.51 289.32 495.19 295.29 492.56 300.46C489.97 305.58 486.11 309.58 480.96 312.48C475.86 315.33 469.46 316.75 461.76 316.75H438.61V297ZM453.8 284.28H461.14C465.47 284.28 468.88 283.52 471.38 282C473.92 280.43 475.73 278.32 476.83 275.67C477.93 272.97 478.48 269.93 478.48 266.55C478.48 263.16 477.93 260.15 476.83 257.5C475.73 254.85 473.92 252.78 471.38 251.27C468.88 249.7 465.47 248.92 461.14 248.92H453.8V284.28Z" transform="translate(-38 17) scale(0.86)"/>
    <path d="M507.2 297V248.34H543.46V260.43H522.38V267.07H541.43V278.67H522.38V297H507.2Z"/>
    <path d="M552.03 297V248.34H589.08V260.36H567.21V266.81H587.66V278.2H567.21V284.98H589.36V297H552.03Z"/>
    <path d="M602.08 297V248.34H617.26V284.28H639.64V297H602.08Z"/>
    <path d="M670.65 297V248.34H685.83V284.28H708.21V297H670.65Z"/>
    <path d="M718.4 297V248.34H733.58V297H718.4Z"/>
    <path d="M768.1 297L752.02 248.34H768.31L778.03 283.66L788.03 248.34H803.49L787.4 297H768.1Z"/>
    <path d="M809.34 297V248.34H846.39V260.36H824.52V266.81H844.97V278.2H824.52V284.98H846.67V297H809.34Z"/>
  </g>
  <text x="490" y="340" text-anchor="middle" fill="#0E325C" font-family="DM Sans, Arial, sans-serif" font-size="26" font-weight="500" letter-spacing="1.2">SANTA CLARA DEL MAR · RECUERDOS · REGALOS · REGIONALES</text>
</svg>
