<svg xmlns="http://www.w3.org/2000/svg" width="100%" height="auto" viewBox="0 0 1024 559" version="1.1">
	<path d="M 480 70.416 C 474.775 72.825, 463.075 77.375, 454 80.525 C 427.890 89.591, 419.413 94.587, 405.471 109.127 C 397.101 117.856, 385.405 134.384, 380.492 144.428 C 377.427 150.692, 373.148 155.244, 355 171.549 C 348.675 177.232, 341.863 184.045, 339.863 186.691 C 335.641 192.272, 316.224 226.371, 313.492 233 C 312.177 236.192, 311.618 240.153, 311.569 246.628 L 311.500 255.755 306.820 260.760 C 301.537 266.410, 299.473 272.136, 300.367 278.662 C 301.142 284.318, 321.078 328.976, 325.542 335.058 C 329.601 340.587, 334.533 344.737, 340.846 347.936 C 348.750 351.942, 412.510 378.777, 417.988 380.404 C 426.552 382.947, 433.482 382.358, 458.317 376.976 C 484.642 371.270, 489.263 369.450, 502.340 359.635 C 507.203 355.986, 511.527 353, 511.951 353 C 512.814 353, 515.967 355.113, 527.234 363.245 C 536.593 369.999, 541.356 371.656, 568.200 377.496 C 591.322 382.527, 597.764 382.934, 607.352 379.973 C 615.727 377.386, 683.044 348.630, 687.867 345.579 C 697.294 339.616, 700.988 333.609, 715.372 300.852 C 724.522 280.015, 725.238 276.899, 722.778 268.616 C 722.010 266.033, 719.818 262.824, 716.890 260 L 712.224 255.500 712.734 248.425 C 713.083 243.577, 712.746 239.642, 711.661 235.925 C 710.139 230.706, 691.883 197.491, 685.212 187.804 C 683.433 185.220, 675.570 177.303, 667.739 170.210 C 650.297 154.410, 646.869 150.659, 643.132 143.280 C 634.774 126.773, 621.221 109.518, 608.826 99.601 C 598.702 91.501, 590.664 87.491, 571.500 80.982 C 563.250 78.179, 551.467 73.662, 545.317 70.943 C 536.258 66.939, 533.070 66, 528.535 66 C 522.764 66, 516.916 67.861, 513.787 70.693 C 512.141 72.182, 511.859 72.182, 510.213 70.693 C 507.047 67.827, 501.209 66, 495.282 66.018 C 490.588 66.032, 487.713 66.859, 480 70.416 M 483.500 82.105 C 478.550 84.337, 467.407 88.582, 458.737 91.538 C 435.470 99.471, 428.562 103.376, 416.414 115.464 C 397.967 133.821, 390.619 147.393, 377.441 187.447 C 372.203 203.368, 367.431 216.980, 366.837 217.697 C 364.166 220.914, 357 217.914, 357 213.579 C 357 212.609, 359.527 203.959, 362.616 194.357 C 365.705 184.755, 368.037 176.703, 367.797 176.464 C 367.558 176.225, 363.110 180.185, 357.914 185.264 C 349.171 193.810, 347.708 195.845, 338.332 212.500 C 323.868 238.191, 323.685 238.602, 323.675 245.298 C 323.663 253.867, 324.636 254.501, 337.788 254.497 C 349.705 254.493, 356.866 252.666, 362.047 248.307 C 366.677 244.411, 372.283 233.966, 379.038 216.647 C 394.654 176.611, 413.661 149.200, 437.661 132.105 C 456.370 118.778, 472.531 113.025, 501.250 109.466 L 506 108.877 506 95.893 C 506 83.441, 505.899 82.809, 503.545 80.455 C 499.831 76.740, 494.408 77.187, 483.500 82.105 M 521.913 79.282 C 518.692 81.755, 518 84.867, 518 96.873 L 518 108.877 522.750 109.450 C 544.993 112.129, 557.071 115.442, 571.415 122.800 C 604.177 139.605, 628.308 170.705, 646.445 219.500 C 654.634 241.530, 660.403 249.281, 671.023 252.523 C 678.574 254.828, 697.057 255.345, 699.092 253.309 C 700.958 251.441, 701.347 242.964, 699.774 238.436 C 698.998 236.201, 693.446 225.626, 687.438 214.936 C 677.125 196.588, 675.959 194.953, 666.613 185.728 C 661.167 180.353, 656.558 176.108, 656.371 176.296 C 656.183 176.483, 658.750 185.081, 662.075 195.403 C 667.801 213.182, 668.036 214.297, 666.536 216.585 C 664.631 219.492, 660.052 219.839, 657.764 217.250 C 656.914 216.287, 652.059 202.900, 646.976 187.500 C 635.025 151.295, 628.231 137.777, 613.223 120.339 C 601.430 106.637, 589.770 99.578, 565.549 91.479 C 557.876 88.913, 547.186 84.831, 541.793 82.407 C 531.622 77.836, 525.127 76.815, 521.913 79.282 M 484.606 124.015 C 479.714 125.045, 475.249 126.351, 474.684 126.916 C 473.981 127.619, 475.228 129.609, 478.636 133.222 C 481.465 136.220, 484.633 140.962, 485.971 144.198 C 489.338 152.349, 490.880 151.016, 495.934 135.583 C 498.170 128.754, 500 122.904, 500 122.583 C 500 121.522, 493.623 122.115, 484.606 124.015 M 524.296 122.750 C 524.523 123.162, 526.395 128.675, 528.455 135 C 530.515 141.325, 532.995 147.327, 533.965 148.337 C 535.665 150.107, 535.843 149.933, 538.800 143.614 C 540.488 140.006, 543.946 134.834, 546.484 132.120 L 551.098 127.188 547.761 126.086 C 539.633 123.404, 523.382 121.093, 524.296 122.750 M 511.469 126.500 C 511.104 127.600, 508.711 134.565, 506.152 141.979 L 501.500 155.458 495.500 159.653 C 492.200 161.960, 488.275 164.575, 486.778 165.463 L 484.057 167.080 478.428 155.856 C 473.237 145.507, 467.625 137, 465.988 137 C 465.615 137, 465.016 143.130, 464.657 150.623 L 464.003 164.245 457.752 174.112 C 454.313 179.539, 451.186 183.871, 450.803 183.739 C 450.420 183.608, 446.488 180.212, 442.066 176.194 C 436.864 171.466, 432.413 168.338, 429.458 167.331 C 426.947 166.475, 424.652 166.015, 424.358 166.308 C 424.065 166.602, 424.962 170.140, 426.352 174.171 C 427.742 178.202, 429.658 185.473, 430.611 190.330 L 432.344 199.159 429.422 204.566 C 427.457 208.202, 426.008 209.823, 425 209.515 C 419.182 207.736, 404.842 206.135, 400.503 206.781 L 395.507 207.524 389.913 222.012 C 384.032 237.246, 381.345 243.010, 377.225 249.236 C 374.086 253.979, 373.746 261.821, 376.454 267 C 377.461 268.925, 381.016 273.045, 384.355 276.155 L 390.426 281.811 397.463 278.286 C 401.333 276.347, 407.304 272.810, 410.732 270.427 L 416.963 266.093 421.540 273.168 L 426.117 280.244 425.440 290.872 L 424.763 301.500 428.971 297.500 C 431.450 295.144, 434.997 289.903, 437.600 284.750 C 440.031 279.938, 442.248 276, 442.526 276 C 442.804 276, 446.865 279.247, 451.549 283.215 L 460.067 290.430 462.602 298.965 C 467.124 314.186, 466.499 312.805, 467.784 310.404 C 468.400 309.253, 471.151 300.766, 473.899 291.542 C 476.647 282.319, 479.097 274.570, 479.343 274.323 C 479.590 274.076, 483.326 275.590, 487.646 277.687 L 495.500 281.500 503.500 296.248 C 507.900 304.360, 511.749 310.997, 512.053 310.998 C 512.358 310.999, 516.370 304.247, 520.971 295.993 L 529.334 280.987 535.492 278.077 C 545.770 273.221, 544.802 272.426, 549.992 290 C 552.510 298.525, 555.270 307.247, 556.126 309.381 L 557.683 313.263 560.520 302.881 C 563.158 293.228, 563.712 292.149, 568.430 287.500 C 571.220 284.750, 575.385 281.023, 577.685 279.219 L 581.866 275.938 585.935 283.758 C 588.247 288.203, 592.151 293.694, 594.977 296.477 L 599.950 301.376 599.475 296.188 C 599.214 293.335, 598.785 288.659, 598.523 285.797 C 598.081 280.978, 598.381 280.056, 602.586 273.309 L 607.127 266.025 614.637 271.092 C 621.915 276.004, 631.406 280.970, 633.550 280.990 C 634.128 280.996, 637.229 278.657, 640.441 275.794 C 650.039 267.240, 652.370 258.709, 647.493 249.985 C 641.433 239.142, 638.857 233.569, 634.018 220.834 L 628.864 207.271 623.182 206.700 C 619.649 206.344, 613.791 206.796, 607.692 207.894 L 597.884 209.659 595.442 205.492 C 594.078 203.163, 593 199.737, 593 197.728 C 593 192.842, 595.383 182.026, 598.394 173.250 C 600.619 166.762, 600.703 166.002, 599.190 166.022 C 595.205 166.074, 587.999 170.592, 581.255 177.268 C 572.851 185.587, 574.104 185.979, 565.660 172.392 C 560.075 163.405, 559.999 163.178, 559.901 155.392 C 559.847 151.051, 559.509 145.108, 559.151 142.185 L 558.500 136.870 555.306 140.185 C 553.549 142.008, 549.568 148.675, 546.459 155 C 543.350 161.325, 540.662 166.650, 540.486 166.834 C 540.310 167.017, 536.218 164.510, 531.393 161.263 L 522.620 155.359 517.377 139.929 C 513.645 128.945, 511.943 125.076, 511.469 126.500 M 443 143.362 C 438.325 146.852, 433.454 150.851, 432.175 152.248 L 429.849 154.789 434.845 156.449 C 437.593 157.361, 441.863 159.887, 444.334 162.063 L 448.826 166.017 450.913 162.641 C 452.702 159.747, 453 157.673, 453 148.132 C 453 142.009, 452.663 137.004, 452.250 137.008 C 451.837 137.013, 447.675 139.872, 443 143.362 M 571.485 148.750 C 571.963 156.509, 572.745 161.415, 573.787 163.194 L 575.365 165.887 578.900 162.783 C 580.844 161.076, 585.075 158.481, 588.301 157.016 L 594.167 154.354 588.388 149.071 C 582.475 143.667, 573.227 137, 571.643 137 C 571.141 137, 571.073 142.072, 571.485 148.750 M 410.312 179.662 C 406.163 186.332, 402 193.737, 402 194.447 C 402 194.772, 403.058 194.773, 404.351 194.448 C 405.644 194.123, 409.516 194.368, 412.955 194.992 C 416.394 195.615, 419.344 195.985, 419.510 195.813 C 419.983 195.324, 415.515 178.719, 414.357 176.662 C 413.438 175.030, 412.984 175.367, 410.312 179.662 M 608.610 180.106 C 605.906 189.639, 604.730 195.064, 605.255 195.588 C 605.536 195.869, 608.747 195.580, 612.391 194.946 C 616.034 194.311, 619.687 194.050, 620.508 194.365 C 622.767 195.231, 622.393 194.142, 617.459 185.476 C 610.831 173.836, 610.453 173.607, 608.610 180.106 M 660.934 266.336 C 660.330 268.626, 658.745 272.386, 657.410 274.692 C 655.296 278.345, 632.431 300.319, 617.848 312.713 C 601.197 326.865, 580.059 334.170, 560.378 332.575 C 553.532 332.020, 546.083 330.658, 520.750 325.329 L 518 324.750 518 333.327 L 518 341.904 522.616 345.079 C 525.154 346.826, 530.104 350.430, 533.615 353.087 C 537.522 356.044, 542.425 358.666, 546.250 359.843 C 555.406 362.662, 590.245 370, 594.471 370 C 602.224 370, 604.805 367.428, 618.002 346.551 C 623.030 338.597, 627.994 331.819, 629.034 331.489 C 631.358 330.751, 634.601 332.386, 636 335 C 637.309 337.446, 635.990 340.621, 629.153 351.481 C 626.389 355.870, 624.291 359.624, 624.489 359.823 C 624.688 360.021, 637.306 354.855, 652.530 348.342 C 681.668 335.876, 685.989 333.293, 690.452 325.666 C 694.816 318.210, 712 278.828, 712 276.284 C 712 272.699, 709.058 268.267, 705.776 266.907 C 701.417 265.102, 692.956 266.416, 690.455 269.287 C 689.330 270.579, 687.182 275.489, 685.682 280.200 C 684.181 284.910, 681.618 290.608, 679.986 292.861 C 676.346 297.886, 658.624 310, 654.913 310 C 650.507 310, 647.517 304.882, 649.812 301.270 C 650.242 300.593, 654.848 297.218, 660.047 293.770 C 670.135 287.079, 670.661 286.390, 675.324 273.763 L 677.811 267.026 673.656 265.984 C 671.370 265.411, 667.819 264.319, 665.765 263.557 L 662.031 262.173 660.934 266.336 M 353.832 264.868 C 350.714 265.766, 347.910 266.754, 347.601 267.064 C 347.019 267.648, 351.764 281.836, 353.829 285.686 C 354.474 286.889, 358.409 290.039, 362.574 292.686 C 374.090 300.007, 375 300.830, 375 303.918 C 375 307.061, 372.292 310, 369.395 310 C 367.305 310, 354.863 302.591, 348.884 297.787 C 344.784 294.492, 341.084 288.152, 338.502 280 C 335.357 270.069, 334.104 268.123, 330.145 267.023 C 323.047 265.052, 319.114 265.686, 315.400 269.400 C 313.211 271.589, 312 273.763, 312 275.502 C 312 279.169, 331.404 322.317, 335.727 328.264 C 337.632 330.884, 341.166 334.185, 343.580 335.600 C 348.258 338.341, 399.103 360.231, 399.611 359.722 C 399.777 359.556, 397.236 354.938, 393.965 349.460 C 387.326 338.343, 386.643 334.935, 390.541 332.381 C 394.617 329.711, 396.927 331.677, 404.941 344.639 C 418.503 366.575, 421.939 370, 430.383 370 C 432.279 370, 443.431 367.945, 455.165 365.433 C 479.122 360.304, 483.815 358.444, 497.190 348.779 L 505.880 342.500 505.940 333.750 C 505.973 328.938, 505.709 325, 505.353 325 C 504.997 325, 497.234 326.650, 488.103 328.667 C 473.839 331.817, 469.739 332.332, 459 332.320 C 448.310 332.309, 445.197 331.915, 437.500 329.596 C 422.270 325.007, 412.826 318.960, 394.967 302.361 C 389.723 297.487, 381.756 290.208, 377.262 286.185 C 369.206 278.973, 363 269.685, 363 264.840 C 363 262.643, 361.547 262.647, 353.832 264.868 M 406.688 287.002 L 399.876 290.725 405.688 295.849 C 408.885 298.666, 411.771 300.978, 412.102 300.986 C 412.684 301, 414.309 283.918, 413.767 283.490 C 413.620 283.374, 410.435 284.954, 406.688 287.002 M 611.157 292.750 C 611.525 297.563, 611.865 301.658, 611.913 301.850 C 612.033 302.334, 623.430 291.917, 623.792 290.992 C 624.077 290.266, 612.870 284, 611.285 284 C 610.847 284, 610.790 287.938, 611.157 292.750 M 486 292.180 C 486 293.049, 484.222 299.311, 482.049 306.096 C 479.876 312.881, 478.189 318.496, 478.299 318.575 C 478.710 318.866, 498.052 314.281, 498.562 313.771 C 499.085 313.248, 488.674 293.393, 486.909 291.550 C 486.346 290.962, 486 291.202, 486 292.180 M 531.257 302.250 C 527.915 308.437, 525.326 313.649, 525.504 313.830 C 525.681 314.012, 530.403 315.192, 535.997 316.452 C 544.998 318.481, 546.113 318.558, 545.703 317.122 C 544.002 311.173, 537.853 291.520, 537.619 291.286 C 537.462 291.129, 534.599 296.062, 531.257 302.250 M 442.634 299.817 C 440.730 302.412, 436.901 306.327, 434.126 308.517 C 431.351 310.708, 429.062 312.805, 429.040 313.178 C 428.934 314.969, 454.387 321.946, 455.816 320.518 C 456.200 320.133, 451.677 302.844, 450.157 298.886 C 448.437 294.409, 446.421 294.659, 442.634 299.817 M 575.771 296.750 C 574.925 297.712, 573.091 302.550, 571.694 307.500 C 567.860 321.094, 567.822 320.495, 572.500 320.170 C 577.266 319.838, 590.232 316.466, 593.671 314.665 L 596.110 313.387 590.805 309.153 C 587.887 306.824, 583.925 302.708, 582 300.006 C 580.075 297.304, 578.232 295.073, 577.905 295.047 C 577.578 295.021, 576.618 295.788, 575.771 296.750 M 434.550 407.284 C 433.726 408.540, 432.929 410.678, 432.776 412.034 C 432.549 414.064, 432.986 414.556, 435.250 414.816 C 437.235 415.045, 438 414.688, 438 413.535 C 438 410.942, 440.529 410.719, 444.863 412.930 C 447.095 414.069, 449.648 415, 450.537 415 C 452.852 415, 458 409.534, 458 407.077 C 458 404.207, 453.411 404.271, 451.060 407.175 L 449.299 409.349 446.245 407.175 C 442.080 404.209, 436.530 404.261, 434.550 407.284 M 488.713 418.411 C 478.748 421.114, 472 429.755, 472 439.811 C 472 449.724, 478.153 457.826, 487.815 460.634 C 501.379 464.578, 515.008 457.471, 518.029 444.878 C 522.027 428.213, 505.981 413.726, 488.713 418.411 M 191.667 418.667 C 191.300 419.033, 191 428.708, 191 440.167 L 191 461 208 461 L 225 461 225 457 L 225 453 213.500 453 L 202 453 202 448 L 202 443 212.060 443 L 222.121 443 221.810 439.250 L 221.500 435.500 211.750 435.214 L 202 434.928 202 430.964 L 202 427 213 427 L 224 427 224 422.500 L 224 418 208.167 418 C 199.458 418, 192.033 418.300, 191.667 418.667 M 232 439.500 L 232 461 248 461 L 264 461 264 456.500 L 264 452 253.500 452 L 243 452 243 435 L 243 418 237.500 418 L 232 418 232 439.500 M 287 439.576 L 287 461.151 300.750 460.826 C 316.901 460.443, 321.832 458.736, 326.580 451.884 C 332.202 443.773, 330.702 430.457, 323.449 424.090 C 318.415 419.670, 311.524 418, 298.318 418 L 287 418 287 439.576 M 336.342 419.551 C 336.015 420.404, 335.944 427.279, 336.185 434.830 C 336.568 446.827, 336.914 449.074, 338.929 452.661 C 344.694 462.918, 361.948 464.985, 370.491 456.442 C 374.797 452.136, 376 446.461, 376 430.451 L 376 418 370.500 418 L 365 418 365 431.953 C 365 446.926, 364.257 450.106, 360.343 451.890 C 356.266 453.747, 353.030 453.184, 349.923 450.077 L 347 447.154 347 432.577 L 347 418 341.969 418 C 338.345 418, 336.771 418.434, 336.342 419.551 M 384.667 418.667 C 384.300 419.033, 384 428.708, 384 440.167 L 384 461 401 461 L 418 461 418 457 L 418 453 406.500 453 L 395 453 395 448 L 395 443 405 443 L 415 443 415 439 L 415 435 405 435 L 395 435 395 431 L 395 427 406 427 L 417 427 417 422.500 L 417 418 401.167 418 C 392.458 418, 385.033 418.300, 384.667 418.667 M 425 439.500 L 425 461 430.518 461 L 436.037 461 435.768 448.998 C 435.621 442.398, 435.793 437.110, 436.150 437.248 C 436.508 437.387, 441.147 442.788, 446.459 449.250 L 456.118 461 460.559 461 L 465 461 465 439.500 L 465 418 460.030 418 L 455.060 418 454.780 430.638 L 454.500 443.276 444.228 430.638 L 433.955 418 429.478 418 L 425 418 425 439.500 M 543 439.480 L 543 461.188 557.250 460.821 C 574.228 460.385, 578.196 458.914, 583.052 451.258 C 585.504 447.390, 586 445.560, 586 440.369 C 586 433.033, 584.858 429.542, 581.186 425.658 C 575.683 419.837, 571.784 418.645, 556.750 418.190 L 543 417.773 543 439.480 M 593 439.500 L 593 461 610 461 L 627 461 627 457.032 L 627 453.063 615.250 452.782 L 603.500 452.500 603.580 448 L 603.660 443.500 613.330 443.214 L 623 442.928 623 438.964 L 623 435 612.976 435 L 602.952 435 603.226 431.001 L 603.500 427.003 614.750 427.001 L 626 427 626 422.500 L 626 418 609.500 418 L 593 418 593 439.500 M 634 439.500 L 634 461 650.057 461 L 666.115 461 665.807 456.750 L 665.500 452.500 654.750 452.216 L 644 451.932 644 434.966 L 644 418 639 418 L 634 418 634 439.500 M 689 439.500 L 689 461 693.968 461 L 698.937 461 699.218 449.518 L 699.500 438.037 705.366 447.574 C 713.232 460.361, 714.208 460.299, 722.205 446.500 L 728 436.500 728 448.750 L 728 461 733 461 L 738 461 738 439.500 L 738 418 733.523 418 L 729.046 418 721.371 430.961 L 713.697 443.922 707.230 433.211 C 703.673 427.320, 700.131 421.488, 699.358 420.250 C 698.242 418.461, 697.037 418, 693.477 418 L 689 418 689 439.500 M 760.137 419.750 C 758.887 422.094, 742 460.156, 742 460.629 C 742 460.833, 744.414 461, 747.364 461 L 752.728 461 754.447 456.500 L 756.165 452 765.883 452 L 775.601 452 777.788 456.500 L 779.974 461 785.421 461 L 790.867 461 785.315 448.750 C 782.261 442.012, 777.822 432.337, 775.450 427.250 L 771.137 418 766.103 418 C 762.332 418, 760.836 418.439, 760.137 419.750 M 794.750 418.576 C 794.337 418.993, 794 428.708, 794 440.167 L 794 461 799.500 461 L 805 461 805 455 L 805 449 809.250 449.009 C 813.345 449.017, 813.641 449.237, 817.360 455.009 L 821.220 461 827.131 461 L 833.042 461 828.564 454.324 L 824.085 447.648 827.517 443.849 C 831.475 439.468, 832.486 436.379, 831.648 431.219 C 830.911 426.678, 828.333 423.114, 823.895 420.500 C 821.099 418.853, 818.293 418.440, 808 418.160 C 801.125 417.972, 795.163 418.160, 794.750 418.576 M 491.333 427.108 C 487.355 428.246, 483.277 433.007, 482.435 437.497 C 481.102 444.602, 487.872 453, 494.933 453 C 504.974 453, 511.354 441.163, 505.991 432.486 C 503.154 427.894, 496.769 425.552, 491.333 427.108 M 297 439.500 L 297 452 304.423 452 C 310.939 452, 312.220 451.685, 314.905 449.426 C 321.374 443.983, 320.972 433.910, 314.102 429.287 C 311.384 427.458, 309.333 427, 303.852 427 L 297 427 297 439.500 M 554 439.500 L 554 452 560.550 452 C 568.547 452, 572.646 450.091, 574.579 445.466 C 576.603 440.620, 576.342 436.804, 573.720 432.912 C 570.640 428.341, 567.650 427.032, 560.250 427.015 L 554 427 554 439.500 M 805 434.139 L 805 441.278 811.074 440.727 C 818.315 440.070, 821 438.089, 821 433.402 C 821 428.840, 818.062 427, 810.777 427 L 805 427 805 434.139 M 763.693 434.159 C 759.118 444.504, 759 444, 766 444 C 772.963 444, 772.778 444.710, 768.533 434.277 L 766.189 428.515 763.693 434.159 M 585.980 479.524 C 584.004 481.906, 585.453 482.269, 588.108 480.058 C 589.958 478.518, 590.131 478.059, 588.872 478.033 C 587.977 478.015, 586.676 478.686, 585.980 479.524 M 225.623 484.520 C 222.516 487.627, 223.897 490.377, 229.548 492.332 C 231.722 493.084, 233.638 494.403, 233.807 495.264 C 234.221 497.377, 230.894 498.290, 227.493 496.997 C 224.073 495.697, 222.821 496.665, 225.443 498.582 C 229.384 501.464, 237 499.147, 237 495.066 C 237 492.776, 235.508 491.586, 230.695 490.035 C 228.024 489.174, 226.990 488.316, 227.226 487.154 C 227.479 485.910, 228.614 485.522, 231.810 485.588 C 237.293 485.703, 236.842 483.611, 231.295 483.199 C 228.570 482.996, 226.715 483.428, 225.623 484.520 M 241.475 490.625 C 239.564 494.819, 238 498.644, 238 499.125 C 238 500.740, 239.919 500.020, 241 498 C 241.821 496.465, 243.094 496, 246.468 496 C 249.987 496, 250.992 496.399, 251.500 498 C 251.849 499.100, 252.817 500, 253.651 500 C 254.484 500, 255.017 499.635, 254.833 499.189 C 251.091 490.090, 247.351 483, 246.294 483 C 245.555 483, 243.386 486.431, 241.475 490.625 M 257 491.583 C 257 498.014, 257.313 500.058, 258.250 499.734 C 259.108 499.437, 259.395 497.529, 259.164 493.651 C 258.979 490.543, 259.062 488, 259.348 488 C 259.633 488, 261.989 490.700, 264.581 494 C 267.174 497.300, 269.679 500, 270.148 500 C 270.616 500, 271 496.175, 271 491.500 C 271 486.500, 270.588 483, 270 483 C 269.450 483, 269 485.475, 269 488.500 C 269 491.525, 268.663 493.981, 268.250 493.958 C 267.837 493.935, 265.700 491.471, 263.500 488.484 C 257.863 480.828, 257 481.239, 257 491.583 M 273 484 C 273 484.550, 274.350 485, 276 485 L 279 485 279 492.500 C 279 498.500, 279.300 500, 280.500 500 C 281.700 500, 282 498.500, 282 492.500 C 282 485.167, 282.056 485, 284.500 485 C 285.875 485, 287 484.550, 287 484 C 287 483.429, 284 483, 280 483 C 276 483, 273 483.429, 273 484 M 290.475 490.625 C 288.564 494.819, 287 498.644, 287 499.125 C 287 500.740, 288.919 500.020, 290 498 C 290.821 496.465, 292.094 496, 295.468 496 C 298.987 496, 299.992 496.399, 300.500 498 C 300.849 499.100, 301.828 500, 302.674 500 C 303.521 500, 303.982 499.438, 303.698 498.750 C 299.845 489.413, 296.436 483, 295.326 483 C 294.569 483, 292.386 486.431, 290.475 490.625 M 314.323 485.250 C 311.307 488.601, 310.866 490.744, 312.425 494.475 C 314.626 499.744, 320.329 501.674, 324.557 498.582 C 327.050 496.759, 325.706 495.357, 322.754 496.702 C 317.755 498.980, 312.504 493.579, 314.805 488.528 C 316.130 485.621, 320.513 484.215, 323.137 485.854 C 325.518 487.340, 326 487.299, 326 485.607 C 326 482.259, 317.256 481.992, 314.323 485.250 M 330 491.500 L 330 500 335.500 500 C 339.722 500, 341 499.652, 341 498.500 C 341 497.389, 339.833 497, 336.500 497 L 332 497 332 490 C 332 486, 331.571 483, 331 483 C 330.412 483, 330 486.500, 330 491.500 M 345.126 491.056 C 341.860 498.827, 341.640 502.848, 344.731 498.250 C 346.817 495.148, 354.538 494.969, 355.500 498 C 355.849 499.100, 356.785 500, 357.581 500 C 358.811 500, 358.785 499.441, 357.407 496.250 C 356.516 494.188, 354.875 490.363, 353.760 487.750 C 350.823 480.866, 349.137 481.511, 345.126 491.056 M 361 491.583 C 361 498.003, 361.315 500.063, 362.250 499.755 C 362.938 499.529, 363.644 498.366, 363.820 497.172 C 364.276 494.071, 367.931 494.382, 370.623 497.750 C 373.252 501.040, 374.954 500.104, 372.672 496.623 C 371.274 494.489, 371.257 494.031, 372.537 492.969 C 373.342 492.301, 374 490.251, 374 488.413 C 374 484.329, 371.928 483, 365.566 483 L 361 483 361 491.583 M 380.088 489.466 C 378.476 493.022, 376.866 496.847, 376.511 497.966 C 375.675 500.599, 377.595 500.625, 379 498 C 379.821 496.465, 381.094 496, 384.468 496 C 387.987 496, 388.992 496.399, 389.500 498 C 389.849 499.100, 390.828 500, 391.674 500 C 393.397 500, 393.461 500.232, 388.984 490.250 C 387.195 486.262, 385.122 483, 384.376 483 C 383.630 483, 381.701 485.910, 380.088 489.466 M 402 491.624 L 402 500.248 407.559 499.787 C 414.401 499.219, 417.145 496.884, 417.297 491.499 C 417.450 486.118, 413.651 483, 406.944 483 L 402 483 402 491.624 M 421 491.500 L 421 500 427 500 C 431.667 500, 433 499.667, 433 498.500 C 433 497.364, 431.770 497, 427.930 497 C 423.245 497, 422.885 496.829, 423.180 494.750 C 423.446 492.877, 424.216 492.448, 427.773 492.191 C 433.086 491.808, 432.342 490, 426.871 490 C 423.284 490, 422.895 489.762, 423.180 487.750 C 423.453 485.830, 424.197 485.455, 428.250 485.195 C 435.103 484.756, 434.103 483, 427 483 L 421 483 421 491.500 M 436.210 491.250 L 436.500 499.500 441.750 499.500 C 447.888 499.500, 448.908 497.643, 443.018 497.193 L 439 496.885 439 489.943 C 439 484.357, 438.699 483, 437.460 483 C 436.173 483, 435.967 484.361, 436.210 491.250 M 457 491.500 C 457 501.026, 458.734 503.193, 459.200 494.250 L 459.500 488.500 462.306 493.274 C 463.850 495.900, 465.544 497.782, 466.071 497.456 C 466.598 497.131, 468.035 494.982, 469.264 492.682 L 471.500 488.500 471.802 494.316 C 472.008 498.288, 472.484 500.005, 473.302 499.733 C 473.961 499.513, 474.462 498.583, 474.417 497.667 C 474.371 496.750, 474.258 493.075, 474.167 489.500 C 474.075 485.925, 473.583 483, 473.073 483 C 472.564 483, 470.700 485.529, 468.931 488.621 L 465.715 494.242 462.277 488.621 C 460.386 485.529, 458.425 483, 457.920 483 C 457.414 483, 457 486.825, 457 491.500 M 481.193 489.401 C 479.545 492.922, 477.898 496.747, 477.531 497.901 C 476.678 500.591, 478.573 500.666, 480 498 C 481.606 495, 489.197 495.168, 491.269 498.250 C 492.101 499.488, 493.067 500.226, 493.416 499.891 C 494.399 498.949, 486.878 483, 485.451 483 C 484.757 483, 482.841 485.881, 481.193 489.401 M 496.210 491.170 C 496.403 496.599, 496.919 499.478, 497.750 499.753 C 498.534 500.012, 499 499.204, 499 497.583 C 499 494.027, 503.281 493.973, 505.592 497.500 C 506.493 498.875, 507.879 500, 508.672 500 C 509.858 500, 509.804 499.476, 508.365 497.041 C 506.722 494.259, 506.719 493.968, 508.308 492.212 C 512.372 487.721, 508.606 483, 500.960 483 L 495.919 483 496.210 491.170 M 537.946 490.654 C 536.051 494.903, 534.350 498.744, 534.167 499.189 C 533.983 499.635, 534.516 500, 535.349 500 C 536.183 500, 537.151 499.100, 537.500 498 C 538.462 494.969, 546.183 495.148, 548.269 498.250 C 549.101 499.488, 550.122 500.171, 550.539 499.768 C 551.632 498.713, 544.595 483.554, 542.855 483.214 C 541.886 483.025, 540.231 485.534, 537.946 490.654 M 554 491.500 C 554 496.500, 554.412 500, 555 500 C 555.550 500, 556 498.875, 556 497.500 C 556 493.939, 560.307 494.083, 563.463 497.750 C 566.270 501.012, 567.857 500.237, 565.557 496.728 C 564.125 494.542, 564.116 494.148, 565.477 493.019 C 567.562 491.289, 567.393 486.666, 565.171 484.655 C 564.019 483.612, 561.615 483, 558.671 483 L 554 483 554 491.500 M 568 484 C 568 484.550, 569.350 485, 571 485 L 574 485 574 492.583 C 574 498.204, 574.324 500.060, 575.250 499.753 C 576.056 499.487, 576.604 496.795, 576.794 492.170 C 577.075 485.303, 577.191 485, 579.544 485 C 580.895 485, 582 484.550, 582 484 C 582 483.429, 579 483, 575 483 C 571 483, 568 483.429, 568 484 M 585 491.500 C 585 496.500, 585.412 500, 586 500 C 586.588 500, 587 496.500, 587 491.500 C 587 486.500, 586.588 483, 586 483 C 585.412 483, 585 486.500, 585 491.500 M 593.174 485.314 C 586.516 492.402, 595.794 504.258, 603.557 498.582 C 606.043 496.764, 604.996 495.673, 601.889 496.844 C 598.870 497.982, 595.468 496.743, 593.982 493.966 C 591.338 489.026, 597.503 482.960, 602.192 485.888 C 604.609 487.398, 606.540 486.355, 604.926 484.411 C 602.972 482.057, 595.710 482.615, 593.174 485.314 M 609 489.943 C 609 495.985, 609.289 497.089, 611.223 498.443 C 614.632 500.832, 618.542 500.397, 620.927 497.365 C 623.550 494.031, 623.990 483, 621.500 483 C 620.351 483, 620 484.269, 620 488.418 C 620 495.557, 619.343 497, 616.093 497 C 612.096 497, 611 495.235, 611 488.800 C 611 485.600, 610.552 483, 610 483 C 609.429 483, 609 485.981, 609 489.943 M 627 491.550 L 627 500.100 632.512 499.800 C 638.892 499.453, 639.936 497.645, 634.018 497.193 L 630 496.885 630 489.943 C 630 484.438, 629.689 483, 628.500 483 C 627.284 483, 627 484.617, 627 491.550 M 641.974 485.527 C 636.842 490.990, 640.676 500, 648.133 500 C 652.282 500, 657 495.228, 657 491.031 C 657 483.743, 647.068 480.105, 641.974 485.527 M 660.086 484.397 C 657.669 487.309, 659.192 490.338, 663.956 492.093 C 669.051 493.971, 669.988 495.401, 667.126 496.932 C 665.742 497.673, 664.303 497.685, 662.427 496.972 C 660.939 496.407, 659.448 496.218, 659.113 496.554 C 658.054 497.613, 662.263 500, 665.191 500 C 667.803 500, 672 497.036, 672 495.191 C 672 493.320, 669.265 491.067, 666 490.250 C 663.507 489.625, 662.500 488.816, 662.500 487.436 C 662.500 485.890, 663.205 485.500, 666 485.500 C 671.302 485.500, 671.228 483.547, 665.912 483.202 C 662.770 482.998, 660.934 483.374, 660.086 484.397 M 681 491.624 L 681 500.248 686.669 499.778 C 691.267 499.396, 692.780 498.795, 694.669 496.598 C 697.740 493.029, 697.690 488.599, 694.545 485.455 C 692.530 483.439, 691.100 483, 686.545 483 L 681 483 681 491.624 M 700.210 491.250 L 700.500 499.500 706.250 499.800 C 710.906 500.043, 712 499.805, 712 498.550 C 712 497.380, 710.898 497, 707.500 497 C 703.367 497, 703 496.796, 703 494.500 C 703 492.250, 703.400 492, 707 492 C 709.200 492, 711 491.550, 711 491 C 711 490.450, 709.200 490, 707 490 C 703.400 490, 703 489.750, 703 487.500 C 703 485.204, 703.367 485, 707.500 485 C 709.975 485, 712 484.550, 712 484 C 712 483.444, 709.320 483, 705.960 483 L 699.919 483 700.210 491.250 M 722.210 491.170 C 722.403 496.599, 722.919 499.478, 723.750 499.753 C 724.557 500.020, 725 499.144, 725 497.283 C 725 494.663, 725.314 494.400, 728.450 494.400 C 732.188 494.400, 736 491.707, 736 489.068 C 736 488.175, 735.299 486.445, 734.443 485.223 C 733.156 483.385, 731.936 483, 727.403 483 L 721.919 483 722.210 491.170 M 739 491.500 L 739 500 745 500 C 749.667 500, 751 499.667, 751 498.500 C 751 497.389, 749.833 497, 746.500 497 C 742.367 497, 742 496.796, 742 494.500 C 742 492.250, 742.400 492, 746 492 C 748.200 492, 750 491.550, 750 491 C 750 490.450, 748.200 490, 746 490 C 742.400 490, 742 489.750, 742 487.500 C 742 485.204, 742.367 485, 746.500 485 C 748.975 485, 751 484.550, 751 484 C 751 483.444, 748.333 483, 745 483 L 739 483 739 491.500 M 754.607 485.151 C 752.545 488.095, 754.245 490.899, 759.081 492.527 C 762.752 493.762, 764.083 496.370, 761.540 497.346 C 760.684 497.675, 758.824 497.503, 757.407 496.965 C 754.048 495.688, 752.074 496.850, 754.540 498.653 C 758.883 501.829, 766.697 498.857, 765.831 494.359 C 765.527 492.783, 764.159 491.843, 758 488.979 C 754.775 487.480, 756.399 485.498, 760.779 485.588 C 766.303 485.703, 765.854 483.612, 760.266 483.197 C 756.966 482.952, 755.886 483.325, 754.607 485.151 M 770.455 485.455 C 767.014 488.895, 767.193 493.347, 770.923 497.077 C 774.127 500.281, 778.264 500.874, 781.310 498.564 C 783.636 496.801, 781.921 495.699, 778.735 496.911 C 774.978 498.339, 771.570 496.185, 771.180 492.134 C 770.651 486.651, 775.574 483.180, 779.952 485.949 C 781.959 487.219, 783.354 486.132, 781.926 484.411 C 779.956 482.037, 773.263 482.646, 770.455 485.455 M 787.443 490.555 C 785.549 494.711, 784 498.536, 784 499.055 C 784 500.690, 785.886 500.082, 786.943 498.107 C 787.618 496.846, 789.337 496.083, 792.096 495.819 C 795.640 495.481, 796.386 495.754, 797.279 497.712 C 798.208 499.752, 801.654 501.184, 800.833 499.189 C 797.064 490.023, 793.345 483, 792.262 483 C 791.505 483, 789.337 486.400, 787.443 490.555 M 364 488.563 C 364 491.960, 364.147 492.112, 367.149 491.813 C 373.435 491.188, 373.189 485, 366.878 485 C 364.246 485, 364 485.304, 364 488.563 M 404 491 L 404 497 407.845 497 C 410.300 497, 412.288 496.339, 413.345 495.171 C 417.149 490.968, 413.719 485, 407.500 485 L 404 485 404 491 M 499 488.437 C 499 491.848, 499.150 492, 502.531 492 C 508.767 492, 508.420 485.811, 502.149 485.187 C 499.147 484.888, 499 485.040, 499 488.437 M 556.667 485.667 C 556.300 486.033, 556 487.608, 556 489.167 C 556 491.705, 556.343 492, 559.300 492 C 562.376 492, 565 490.560, 565 488.871 C 565 486.239, 558.568 483.765, 556.667 485.667 M 644 487 C 642.900 488.100, 642 490.055, 642 491.345 C 642 496.350, 649.813 499.344, 652.672 495.434 C 657.304 489.099, 649.495 481.505, 644 487 M 684 491 L 684 497 687.066 497 C 691.922 497, 694 495.387, 694 491.620 C 694 487.517, 691.404 485, 687.171 485 L 684 485 684 491 M 725 488.437 C 725 491.848, 725.150 492, 728.531 492 C 734.767 492, 734.420 485.811, 728.149 485.187 C 725.147 484.888, 725 485.040, 725 488.437 M 244.762 489.024 C 243.371 492.409, 243.397 492.509, 245.758 492.825 C 249.052 493.267, 249.256 492.838, 247.611 488.925 L 246.190 485.547 244.762 489.024 M 293.704 489.494 L 292.032 493 295.016 493 C 298.466 493, 298.394 493.167, 296.688 489.109 L 295.376 485.989 293.704 489.494 M 382.713 489.476 L 381.032 493 384.084 493 C 386.785 493, 387.056 492.742, 386.446 490.750 C 385.019 486.086, 384.426 485.883, 382.713 489.476 M 483.715 489.471 L 482.032 493 485.016 493 C 488.265 493, 488.668 491.831, 486.664 488.221 C 485.403 485.950, 485.392 485.955, 483.715 489.471 M 541.201 489.322 C 539.597 493.757, 539.578 493.716, 542.931 493.223 C 545.681 492.820, 545.793 492.629, 544.742 490.147 C 542.948 485.914, 542.473 485.803, 541.201 489.322 M 790.762 489.024 C 789.371 492.409, 789.397 492.509, 791.758 492.825 C 795.052 493.267, 795.256 492.838, 793.611 488.925 L 792.190 485.547 790.762 489.024 M 348.150 490 C 347.142 492.891, 347.211 493, 350.052 493 C 353.405 493, 353.409 492.993, 351.839 489.547 C 350.325 486.223, 349.428 486.333, 348.150 490 M 520.105 490.373 C 518.462 492.353, 519.832 495, 522.500 495 C 523.757 495, 525.067 494.268, 525.410 493.373 C 526.111 491.548, 524.415 489, 522.500 489 C 521.810 489, 520.732 489.618, 520.105 490.373" stroke="none" fill="black" fill-rule="evenodd"/>
</svg>