<svg width="512" height="512" viewBox="0 0 512 512" fill="none" xmlns="http://www.w3.org/2000/svg">
  <rect width="512" height="512" rx="108" fill="#F8F2E7"/>
  <g stroke="#0E325C" stroke-width="14" stroke-linecap="round" stroke-linejoin="round">
    <path d="M149 170C182 128 214 113 242 115H270C298 113 330 128 363 170"/>
    <path d="M133 187C103 210 86 240 79 276C74 302 84 328 108 349"/>
    <path d="M379 187C409 210 426 240 433 276C438 302 428 328 404 349"/>
    <path d="M121 343C142 381 186 405 234 410H278C326 405 370 381 391 343"/>
    <path d="M121 343L95 300"/>
    <path d="M391 343L417 300"/>
    <path d="M177 173L194 232"/>
    <path d="M335 173L318 232"/>
    <path d="M137 186L177 173"/>
    <path d="M375 186L335 173"/>
    <path d="M130 350L172 385"/>
    <path d="M382 350L340 385"/>
    <path d="M172 385L235 410"/>
    <path d="M340 385L277 410"/>
    <path d="M256 115V160"/>
    <path d="M204 184L216 212L232 186L248 214L264 184L280 214L296 186L308 212"/>
    <path d="M165 220L182 252L199 224L216 255L233 227L250 258L267 230L284 261L301 233L318 264L335 236"/>
    <path d="M180 308L197 276L214 304L231 273L248 301L265 270L282 298L299 267L316 295L333 264"/>
    <path d="M205 350L220 320L236 346L252 316L268 344L284 318L300 346"/>
  </g>
</svg>
