<svg width="128" height="128" viewBox="0 0 512 512" fill="none" xmlns="http://www.w3.org/2000/svg">
  <rect width="512" height="512" rx="100" fill="#F8F2E7"/>
  <g stroke="#0E325C" stroke-width="18" stroke-linecap="round" stroke-linejoin="round">
    <path d="M171 88C208 58 255 61 291 86L320 106L348 86C384 61 431 58 468 88"/>
    <path d="M108 250C121 203 141 168 171 88"/>
    <path d="M404 88C434 168 454 203 467 250"/>
    <path d="M122 255C113 290 132 331 169 351L255 400L341 351C378 331 397 290 388 255"/>
    <path d="M204 157C222 125 257 106 320 106"/>
    <path d="M308 157C290 125 255 106 192 106"/>
    <path d="M204 157C188 173 176 193 170 216"/>
    <path d="M308 157C324 173 336 193 342 216"/>
    <path d="M170 216C182 248 213 269 255 273C297 269 328 248 340 216"/>
    <path d="M255 106V134"/>
    <path d="M219 137L232 163L247 136L262 164L277 136L292 163"/>
    <path d="M184 188L200 219L216 189L232 221L248 191L264 223L280 191L296 221L312 189L328 219"/>
    <path d="M205 252L221 224L237 253L253 223L269 253L285 224L301 252"/>
  </g>
</svg>
