<svg xmlns="http://www.w3.org/2000/svg" viewBox="260 55 500 360">
  <path d="M 480 70.416 C 474.775 72.825, 463.075 77.375, 454 80.525 C 427.890 89.591, 419.413 94.587, 405.471 109.127 C 397.101 117.856, 385.405 134.384, 380.492 144.428 C 377.427 150.692, 373.148 155.244, 355 171.549 C 348.675 177.232, 341.863 184.045, 339.863 186.691 C 335.641 192.272, 316.224 226.371, 313.492 233 C 312.177 236.192, 311.618 240.153, 311.569 246.628 L 311.500 255.755 306.820 260.760 C 301.537 266.410, 299.473 272.136, 300.367 278.662 C 301.142 284.318, 321.078 328.976, 325.542 335.058 C 329.601 340.587, 334.533 344.737, 340.846 347.936 C 348.750 351.942, 412.510 378.777, 417.988 380.404 C 426.552 382.947, 433.482 382.358, 458.317 376.976 C 484.642 371.270, 489.263 369.450, 502.340 359.635 C 507.203 355.986, 511.527 353, 511.951 353 C 512.814 353, 515.967 355.113, 527.234 363.245 C 536.593 369.999, 541.356 371.656, 568.200 377.496 C 591.322 382.527, 597.764 382.934, 607.352 379.973 C 615.727 377.386, 683.044 348.630, 687.867 345.579 C 697.294 339.616, 700.988 333.609, 715.372 300.852 C 724.522 280.015, 725.238 276.899, 722.778 268.616 C 722.010 266.033, 719.818 262.824, 716.890 260 L 712.224 255.500 712.734 248.425 C 713.083 243.577, 712.746 239.642, 711.661 235.925 C 710.139 230.706, 691.883 197.491, 685.212 187.804 C 683.433 185.220, 675.570 177.303, 667.739 170.210 C 650.297 154.410, 646.869 150.659, 643.132 143.280 C 634.774 126.773, 621.221 109.518, 608.826 99.601 C 598.702 91.501, 590.664 87.491, 571.500 80.982 C 563.250 78.179, 551.467 73.662, 545.317 70.943 C 536.258 66.939, 533.070 66, 528.535 66 C 522.764 66, 516.916 67.861, 513.787 70.693 C 512.141 72.182, 511.859 72.182, 510.213 70.693 C 507.047 67.827, 501.209 66, 495.282 66.018 C 490.588 66.032, 487.713 66.859, 480 70.416 M 483.500 82.105 C 478.550 84.337, 467.407 88.582, 458.737 91.538 C 435.470 99.471, 428.562 103.376, 416.414 115.464 C 397.967 133.821, 390.619 147.393, 377.441 187.447 C 372.203 203.368, 367.431 216.980, 366.837 217.697 C 364.166 220.914, 357 217.914, 357 213.579 C 357 212.609, 359.527 203.959, 362.616 194.357 C 365.705 184.755, 368.037 176.703, 367.797 176.464 C 367.558 176.225, 363.110 180.185, 357.914 185.264 C 349.171 193.810, 347.708 195.845, 338.332 212.500 C 323.868 238.191, 323.685 238.602, 323.675 245.298 C 323.663 253.867, 324.636 254.501, 337.788 254.497 C 349.705 254.493, 356.866 252.666, 362.047 248.307 C 366.677 244.411, 372.283 233.966, 379.038 216.647 C 394.654 176.611, 413.661 149.200, 437.661 132.105 C 456.370 118.778, 472.531 113.025, 501.250 109.466 L 506 108.877 506 95.893 C 506 83.441, 505.899 82.809, 503.545 80.455 C 499.831 76.740, 494.408 77.187, 483.500 82.105 M 521.913 79.282 C 518.692 81.755, 518 84.867, 518 96.873 L 518 108.877 522.750 109.450 C 544.993 112.129, 557.071 115.442, 571.415 122.800 C 604.177 139.605, 628.308 170.705, 646.445 219.500 C 654.634 241.530, 660.403 249.281, 671.023 252.523 C 678.574 254.828, 697.057 255.345, 699.092 253.309 C 700.958 251.441, 701.347 242.964, 699.774 238.436 C 698.998 236.201, 693.446 225.626, 687.438 214.936 C 677.125 196.588, 675.959 194.953, 666.613 185.728 C 661.167 180.353, 656.558 176.108, 656.371 176.296 C 656.183 176.483, 658.750 185.081, 662.075 195.403 C 667.801 213.182, 668.036 214.297, 666.536 216.585 C 664.631 219.492, 660.052 219.839, 657.764 217.250 C 656.914 216.287, 652.059 202.900, 646.976 187.500 C 635.025 151.295, 628.231 137.777, 613.223 120.339 C 601.430 106.637, 589.770 99.578, 565.549 91.479 C 557.876 88.913, 547.186 84.831, 541.793 82.407 C 531.622 77.836, 525.127 76.815, 521.913 79.282 M 484.606 124.015 C 479.714 125.045, 475.249 126.351, 474.684 126.916 C 473.981 127.619, 475.228 129.609, 478.636 133.222 C 481.465 136.220, 484.633 140.962, 485.971 144.198 C 489.338 152.349, 490.880 151.016, 495.934 135.583 C 498.170 128.754, 500 122.904, 500 122.583 C 500 121.522, 493.623 122.115, 484.606 124.015 M 524.296 122.750 C 524.523 123.162, 526.395 128.675, 528.455 135 C 530.515 141.325, 532.995 147.327, 533.965 148.337 C 535.665 150.107, 535.843 149.933, 538.800 143.614 C 540.488 140.006, 543.946 134.834, 546.484 132.120 L 551.098 127.188 547.761 126.086 C 539.633 123.404, 523.382 121.093, 524.296 122.750 M 511.469 126.500 C 511.104 127.600, 508.711 134.565, 506.152 141.979 L 501.500 155.458 495.500 159.653 C 492.200 161.960, 488.275 164.575, 486.778 165.463 L 484.057 167.080 478.428 155.856 C 473.237 145.507, 467.625 137, 465.988 137 C 465.615 137, 465.016 143.130, 464.657 150.623 L 464.003 164.245 457.752 174.112 C 454.313 179.539, 451.186 183.871, 450.803 183.739 C 450.420 183.608, 446.488 180.212, 442.066 176.194 C 436.864 171.466, 432.413 168.338, 429.458 167.331 C 426.947 166.475, 424.652 166.015, 424.358 166.308 C 424.065 166.602, 424.962 170.140, 426.352 174.171 C 427.742 178.202, 429.658 185.473, 430.611 190.330 L 432.344 199.159 429.422 204.566 C 427.457 208.202, 426.008 209.823, 425 209.515 C 419.182 207.736, 404.842 206.135, 400.503 206.781 L 395.507 207.524 389.913 222.012 C 384.032 237.246, 381.345 243.010, 377.225 249.236 C 374.086 253.979, 373.746 261.821, 376.454 267 C 377.461 268.925, 381.016 273.045, 384.355 276.155 L 390.426 281.811 397.463 278.286 C 401.333 276.347, 407.304 272.810, 410.732 270.427 L 416.963 266.093 421.540 273.168 L 426.117 280.244 425.440 290.872 L 424.763 301.500 428.971 297.500 C 431.450 295.144, 434.997 289.903, 437.600 284.750 C 440.031 279.938, 442.248 276, 442.526 276 C 442.804 276, 446.865 279.247, 451.549 283.215 L 460.067 290.430 462.602 298.965 C 467.124 314.186, 466.499 312.805, 467.784 310.404 C 468.400 309.253, 471.151 300.766, 473.899 291.542 C 476.647 282.319, 479.097 274.570, 479.343 274.323 C 479.590 274.076, 483.326 275.590, 487.646 277.687 L 495.500 281.500 503.500 296.248 C 507.900 304.360, 511.749 310.997, 512.053 310.998 C 512.358 310.999, 516.370 304.247, 520.971 295.993 L 529.334 280.987 535.492 278.077 C 545.770 273.221, 544.802 272.426, 549.992 290 C 552.510 298.525, 555.270 307.247, 556.126 309.381 L 557.683 313.263 560.520 302.881 C 563.158 293.228, 563.712 292.149, 568.430 287.500 C 571.220 284.750, 575.385 281.023, 577.685 279.219 L 581.866 275.938 585.935 283.758 C 588.247 288.203, 592.151 293.694, 594.977 296.477 L 599.950 301.376 599.475 296.188 C 599.214 293.335, 598.785 288.659, 598.523 285.797 C 598.081 280.978, 598.381 280.056, 602.586 273.309 L 607.127 266.025 614.637 271.092 C 621.915 276.004, 631.406 280.970, 633.550 280.990 C 634.128 280.996, 637.229 278.657, 640.441 275.794 C 650.039 267.240, 652.370 258.709, 647.493 249.985 C 641.433 239.142, 638.857 233.569, 634.018 220.834 L 628.864 207.271 623.182 206.700 C 619.649 206.344, 613.791 206.796, 607.692 207.894 L 597.884 209.659 595.442 205.492 C 594.078 203.163, 593 199.737, 593 197.728 C 593 192.842, 595.383 182.026, 598.394 173.250 C 600.619 166.762, 600.703 166.002, 599.190 166.022 C 595.205 166.074, 587.999 170.592, 581.255 177.268 C 572.851 185.587, 574.104 185.979, 565.660 172.392 C 560.075 163.405, 559.999 163.178, 559.901 155.392 C 559.847 151.051, 559.509 145.108, 559.151 142.185 L 558.500 136.870 555.306 140.185 C 553.549 142.008, 549.568 148.675, 546.459 155 C 543.350 161.325, 540.662 166.650, 540.486 166.834 C 540.310 167.017, 536.218 164.510, 531.393 161.263 L 522.620 155.359 517.377 139.929 C 513.645 128.945, 511.943 125.076, 511.469 126.500 M 443 143.362 C 438.325 146.852, 433.454 150.851, 432.175 152.248 L 429.849 154.789 434.845 156.449 C 437.593 157.361, 441.863 159.887, 444.334 162.063 L 448.826 166.017 450.913 162.641 C 452.702 159.747, 453 157.673, 453 148.132 C 453 142.009, 452.663 137.004, 452.250 137.008 C 451.837 137.013, 447.675 139.872, 443 143.362 M 571.485 148.750 C 571.963 156.509, 572.745 161.415, 573.787 163.194 L 575.365 165.887 578.900 162.783 C 580.844 161.076, 585.075 158.481, 588.301 157.016 L 594.167 154.354 588.388 149.071 C 582.475 143.667, 573.227 137, 571.643 137 C 571.141 137, 571.073 142.072, 571.485 148.750 M 410.312 179.662 C 406.163 186.332, 402 193.737, 402 194.447 C 402 194.772, 403.058 194.773, 404.351 194.448 C 405.644 194.123, 409.516 194.368, 412.955 194.992 C 416.394 195.615, 419.344 195.985, 419.510 195.813 C 419.983 195.324, 415.515 178.719, 414.357 176.662 C 413.438 175.030, 412.984 175.367, 410.312 179.662 M 608.610 180.106 C 605.906 189.639, 604.730 195.064, 605.255 195.588 C 605.536 195.869, 608.747 195.580, 612.391 194.946 C 616.034 194.311, 619.687 194.050, 620.508 194.365 C 622.767 195.231, 622.393 194.142, 617.459 185.476 C 610.831 173.836, 610.453 173.607, 608.610 180.106 M 660.934 266.336 C 660.330 268.626, 658.745 272.386, 657.410 274.692 C 655.296 278.345, 632.431 300.319, 617.848 312.713 C 601.197 326.865, 580.059 334.170, 560.378 332.575 C 553.532 332.020, 546.083 330.658, 520.750 325.329 L 518 324.750 518 333.327 L 518 341.904 522.616 345.079 C 525.154 346.826, 530.104 350.430, 533.615 353.087 C 537.522 356.044, 542.425 358.666, 546.250 359.843 C 555.406 362.662, 590.245 370, 594.471 370 C 602.224 370, 604.805 367.428, 618.002 346.551 C 623.030 338.597, 627.994 331.819, 629.034 331.489 C 631.358 330.751, 634.601 332.386, 636 335 C 637.309 337.446, 635.990 340.621, 629.153 351.481 C 626.389 355.870, 624.291 359.624, 624.489 359.823 C 624.688 360.021, 637.306 354.855, 652.530 348.342 C 681.668 335.876, 685.989 333.293, 690.452 325.666 C 694.816 318.210, 712 278.828, 712 276.284 C 712 272.699, 709.058 268.267, 705.776 266.907 C 701.417 265.102, 692.956 266.416, 690.455 269.287 C 689.330 270.579, 687.182 275.489, 685.682 280.200 C 684.181 284.910, 681.618 290.608, 679.986 292.861 C 676.346 297.886, 658.624 310, 654.913 310 C 650.507 310, 647.517 304.882, 649.812 301.270 C 650.242 300.593, 654.848 297.218, 660.047 293.770 C 670.135 287.079, 670.661 286.390, 675.324 273.763 L 677.811 267.026 673.656 265.984 C 671.370 265.411, 667.819 264.319, 665.765 263.557 L 662.031 262.173 660.934 266.336 M 353.832 264.868 C 350.714 265.766, 347.910 266.754, 347.601 267.064 C 347.019 267.648, 351.764 281.836, 353.829 285.686 C 354.474 286.889, 358.409 290.039, 362.574 292.686 C 374.090 300.007, 375 300.830, 375 303.918 C 375 307.061, 372.292 310, 369.395 310 C 367.305 310, 354.863 302.591, 348.884 297.787 C 344.784 294.492, 341.084 288.152, 338.502 280 C 335.357 270.069, 334.104 268.123, 330.145 267.023 C 323.047 265.052, 319.114 265.686, 315.400 269.400 C 313.211 271.589, 312 273.763, 312 275.502 C 312 279.169, 331.404 322.317, 335.727 328.264 C 337.632 330.884, 341.166 334.185, 343.580 335.600 C 348.258 338.341, 399.103 360.231, 399.611 359.722 C 399.777 359.556, 397.236 354.938, 393.965 349.460 C 387.326 338.343, 386.643 334.935, 390.541 332.381 C 394.617 329.711, 396.927 331.677, 404.941 344.639 C 418.503 366.575, 421.939 370, 430.383 370 C 432.279 370, 443.431 367.945, 455.165 365.433 C 479.122 360.304, 483.815 358.444, 497.190 348.779 L 505.880 342.500 505.940 333.750 C 505.973 328.938, 505.709 325, 505.353 325 C 504.997 325, 497.234 326.650, 488.103 328.667 C 473.839 331.817, 469.739 332.332, 459 332.320 C 448.310 332.309, 445.197 331.915, 437.500 329.596 C 422.270 325.007, 412.826 318.960, 394.967 302.361 C 389.723 297.487, 381.756 290.208, 377.262 286.185 C 369.206 278.973, 363 269.685, 363 264.840 C 363 262.643, 361.547 262.647, 353.832 264.868 M 406.688 287.002 L 399.876 290.725 405.688 295.849 C 408.885 298.666, 411.771 300.978, 412.102 300.986 C 412.684 301, 414.309 283.918, 413.767 283.490 C 413.620 283.374, 410.435 284.954, 406.688 287.002 M 611.157 292.750 C 611.525 297.563, 611.865 301.658, 611.913 301.850 C 612.033 302.334, 623.430 291.917, 623.792 290.992 C 624.077 290.266, 612.870 284, 611.285 284 C 610.847 284, 610.790 287.938, 611.157 292.750" fill="#0E325C" fill-rule="evenodd"/>
</svg>
